<?xml version="1.0" standalone="no"?>
<!DOCTYPE svg PUBLIC "-//W3C//DTD SVG 20010904//EN"
 "http://www.w3.org/TR/2001/REC-SVG-20010904/DTD/svg10.dtd">
<svg version="1.0" xmlns="http://www.w3.org/2000/svg"
 width="700.000000pt" height="700.000000pt" viewBox="0 0 700.000000 700.000000"
 preserveAspectRatio="xMidYMid meet">
<metadata>
Created by potrace 1.14, written by Peter Selinger 2001-2017
</metadata>
<g transform="translate(0.000000,700.000000) scale(0.100000,-0.100000)"
fill="#000000" stroke="none">
<path d="M48 5324 c-3 -3 -4 -23 -1 -45 4 -25 2 -39 -6 -39 -6 0 -11 11 -11
25 0 14 -4 25 -10 25 -5 0 -10 -11 -10 -25 0 -14 4 -25 8 -25 5 0 10 -32 10
-71 1 -39 6 -86 11 -103 15 -49 30 -108 36 -146 22 -131 122 -496 160 -585 8
-16 17 -43 21 -59 4 -16 31 -88 60 -160 30 -72 54 -134 54 -138 0 -4 27 -62
59 -130 32 -68 77 -161 99 -208 48 -102 167 -325 192 -360 9 -14 19 -29 21
-35 8 -20 104 -162 149 -220 25 -33 57 -77 69 -98 13 -21 25 -37 26 -35 2 2
-4 64 -12 138 -20 185 -10 384 22 434 7 12 17 39 21 61 8 47 19 64 52 76 l23
9 -20 26 c-12 15 -21 33 -21 40 0 8 -5 14 -12 14 -11 0 -78 69 -78 81 0 3 -30
43 -66 90 -81 104 -184 259 -184 277 0 21 28 25 55 8 30 -20 45 -20 45 -2 0
12 -87 61 -140 79 -8 2 -30 35 -49 72 -19 37 -40 69 -46 72 -12 4 -125 184
-125 198 0 3 -31 59 -69 123 -78 132 -182 337 -202 397 -7 22 -18 47 -25 55
-14 19 -39 74 -54 121 -7 25 -16 36 -28 35 -10 0 -16 6 -16 17 2 18 1 20 -8
11z"/>
<path d="M5138 5173 c6 -2 18 -2 25 0 6 3 1 5 -13 5 -14 0 -19 -2 -12 -5z"/>
<path d="M5200 5170 c0 -5 -18 -10 -39 -10 -36 0 -58 -17 -53 -42 1 -5 -7 -8
-18 -8 -11 0 -20 -4 -20 -10 0 -5 7 -10 15 -10 8 0 15 -7 15 -15 0 -8 14 -28
32 -44 18 -16 28 -33 24 -39 -7 -12 -89 -9 -151 5 -16 4 -34 7 -40 8 -5 1 -17
4 -25 7 -20 8 -106 28 -120 28 -7 0 -10 -6 -7 -14 7 -17 -41 -31 -71 -22 -11
4 -24 0 -32 -9 -7 -8 -23 -15 -37 -15 -19 0 -23 -4 -18 -19 4 -13 -1 -24 -16
-35 -13 -9 -21 -17 -18 -19 2 -2 28 -16 58 -31 30 -16 62 -32 70 -36 9 -5 41
-18 71 -30 30 -12 78 -32 105 -45 28 -12 69 -30 93 -40 23 -10 42 -22 42 -27
0 -4 11 -8 25 -8 14 0 42 -8 63 -19 20 -10 89 -37 152 -61 63 -23 120 -45 125
-50 34 -27 510 -151 725 -189 63 -11 194 -29 290 -40 96 -11 229 -31 295 -45
66 -13 145 -27 175 -31 30 -3 63 -9 73 -11 16 -5 17 18 17 389 l0 394 -322 6
c-178 3 -368 11 -423 17 -157 17 -560 70 -663 87 -69 11 -97 12 -105 4 -14
-14 -30 -15 -22 -1 3 6 0 10 -7 11 -28 2 -73 1 -83 -2 -12 -4 -50 7 -84 24
-19 9 -25 9 -28 0 -5 -15 -43 -18 -43 -3 0 6 -4 10 -10 10 -5 0 -10 -4 -10
-10z m-330 -154 c0 -3 -4 -8 -10 -11 -5 -3 -10 -1 -10 4 0 6 5 11 10 11 6 0
10 -2 10 -4z"/>
<path d="M3123 4686 c-13 -6 -23 -18 -23 -28 0 -9 -10 -20 -22 -24 -13 -4 -26
-12 -30 -18 -8 -12 9 -36 26 -36 6 0 4 5 -4 10 -11 7 -7 9 17 7 32 -2 40 -17
14 -28 -15 -6 20 -31 104 -75 22 -12 44 -30 49 -42 6 -11 27 -25 48 -31 21 -7
38 -16 38 -21 0 -12 -54 -40 -78 -40 -10 0 -22 -4 -27 -9 -11 -11 -79 -29
-135 -37 -68 -9 -170 -36 -177 -46 -4 -7 7 -8 31 -4 20 4 36 4 36 0 0 -10 -70
-74 -81 -74 -5 0 -9 -8 -9 -17 0 -16 -2 -16 -11 -3 -8 12 -10 8 -7 -17 4 -29
2 -32 -26 -36 -29 -4 -30 -4 -8 -12 22 -7 22 -9 6 -26 -15 -17 -15 -19 0 -25
24 -9 19 -24 -12 -35 -36 -12 -41 -49 -7 -49 13 0 30 6 37 13 7 6 18 12 23 13
23 3 55 17 55 25 0 5 5 9 11 9 6 0 41 14 77 31 53 26 62 33 48 41 -10 5 -24 7
-33 4 -14 -6 -14 -4 -2 10 13 16 11 17 -20 11 -18 -4 -37 -7 -42 -7 -5 0 -9
-7 -9 -16 0 -9 -6 -14 -12 -11 -21 7 -48 -12 -48 -33 0 -11 -5 -20 -11 -20 -6
0 -8 7 -5 16 4 10 -1 22 -11 29 -23 17 -14 26 25 27 32 1 58 35 53 71 -1 9 4
17 13 17 8 0 19 8 25 17 5 10 13 15 17 11 7 -8 44 34 44 50 0 15 28 23 56 16
16 -4 31 -1 43 10 10 9 31 16 47 14 16 -1 39 4 52 11 33 17 142 18 153 0 4 -8
12 -14 16 -15 4 0 16 -4 26 -7 37 -14 54 -19 102 -27 46 -8 191 -69 225 -95 8
-7 42 -22 75 -36 78 -30 138 -62 142 -75 2 -6 -57 -20 -144 -33 -82 -12 -240
-38 -353 -56 -113 -19 -234 -37 -270 -40 -92 -9 -364 -46 -368 -50 -2 -1 12
-8 30 -14 l33 -12 -25 -19 c-14 -11 -28 -20 -32 -20 -5 0 -8 -5 -8 -11 0 -7
10 -9 25 -5 14 4 25 2 25 -3 0 -10 -59 -69 -96 -96 -11 -7 -15 -17 -11 -21 4
-5 71 24 149 64 120 60 143 69 152 56 10 -13 18 -12 70 5 45 15 63 17 77 8 13
-8 25 -7 46 3 15 7 44 14 63 15 19 1 46 5 60 9 23 6 28 1 63 -69 53 -103 113
-167 195 -207 58 -29 76 -33 142 -33 59 1 87 6 132 27 80 37 188 151 164 175
-14 14 -56 -10 -79 -46 -36 -54 -80 -85 -156 -110 -54 -18 -71 -19 -105 -10
-132 35 -221 147 -154 193 39 27 85 20 118 -18 16 -18 44 -40 62 -49 41 -20
52 -12 89 70 32 72 39 75 171 71 104 -4 116 4 125 81 3 29 11 55 18 57 7 3 35
-4 64 -16 28 -11 61 -20 73 -20 17 0 14 5 -16 25 -20 14 -43 25 -51 25 -8 0
-16 4 -19 9 -3 5 -26 18 -51 30 -25 12 -45 25 -45 29 0 4 -25 16 -55 26 -30
11 -63 26 -72 35 -22 20 -146 93 -190 112 -18 8 -33 19 -33 26 0 7 -9 9 -22 6
-13 -3 -20 -2 -16 2 10 11 -29 38 -42 30 -6 -3 -10 -1 -10 5 0 13 -72 80 -85
80 -12 0 -34 28 -28 34 4 3 -1 6 -11 6 -9 0 -27 11 -39 24 -12 12 -39 28 -59
35 -20 7 -42 18 -48 26 -7 8 -16 12 -21 9 -5 -3 -9 0 -9 7 0 9 -3 9 -14 0 -16
-13 -32 1 -21 19 3 6 -1 7 -9 4 -11 -4 -16 0 -16 11 0 9 -4 14 -9 10 -5 -3
-18 6 -29 20 -13 17 -30 25 -49 25 -17 0 -38 9 -48 19 -9 11 -33 21 -54 23
-28 2 -35 7 -33 21 2 9 2 16 0 16 -2 -1 -13 -6 -25 -13z"/>
<path d="M1912 4478 c-6 -6 -12 -17 -12 -22 0 -6 5 -4 10 4 8 12 10 10 10 -10
0 -24 3 -25 40 -22 28 3 40 0 40 -9 0 -7 3 -9 6 -6 9 8 -23 57 -37 57 -8 0 -7
-5 1 -15 9 -11 10 -15 1 -15 -14 0 -36 20 -42 38 -3 10 -7 10 -17 0z"/>
<path d="M1858 4445 c2 -19 8 -35 13 -35 5 0 9 -6 9 -13 0 -20 185 -377 224
-432 11 -16 29 -46 40 -65 45 -85 69 -126 81 -140 7 -8 14 -20 16 -25 5 -12
106 -178 159 -260 22 -33 60 -94 85 -135 98 -159 157 -247 195 -292 22 -26 40
-50 40 -55 0 -5 22 -40 50 -78 27 -39 60 -85 72 -103 13 -19 38 -50 55 -70 18
-20 33 -40 33 -43 0 -3 11 -19 25 -35 14 -16 25 -32 25 -35 0 -3 12 -20 28
-36 15 -17 43 -53 62 -79 68 -95 185 -236 260 -314 19 -19 57 -59 83 -88 58
-63 92 -88 102 -72 4 7 15 4 33 -9 78 -55 349 -171 577 -246 318 -106 497
-150 725 -179 192 -25 210 -26 210 -16 0 6 -7 10 -14 10 -44 0 -259 33 -306
47 -152 44 -360 117 -428 150 -42 20 -108 50 -147 67 -120 54 -267 132 -460
244 -38 23 -91 52 -116 66 -90 49 -253 166 -324 234 -60 57 -266 274 -305 321
-25 30 -54 63 -65 75 -12 12 -47 57 -80 101 -32 44 -62 82 -67 83 -4 2 -8 8
-8 14 0 5 -25 50 -55 98 -30 49 -57 100 -61 114 -3 15 -10 28 -14 31 -5 3 -22
33 -38 68 -50 104 -118 250 -131 285 -8 17 -17 32 -21 32 -3 0 -7 6 -7 13 0
19 -50 144 -93 234 -22 44 -40 84 -40 87 0 3 -17 43 -38 88 -22 46 -47 104
-57 130 -10 26 -24 53 -31 59 -8 6 -14 20 -14 30 0 11 -10 23 -24 28 -13 5
-26 17 -30 27 -5 13 -9 15 -18 6 -16 -16 -29 -15 -22 2 3 8 0 23 -6 33 -10 16
-11 16 -6 1 3 -12 0 -18 -10 -18 -8 0 -12 5 -9 10 3 6 2 10 -3 10 -5 0 -12 9
-15 20 -7 25 -62 28 -89 3 -11 -9 -18 -11 -18 -5 0 7 5 12 10 12 6 0 10 7 10
15 0 8 -7 15 -15 15 -9 0 -15 9 -15 25 0 14 -6 25 -13 25 -9 0 -12 -11 -9 -35z"/>
<path d="M576 4462 c-7 -12 28 -58 54 -72 35 -19 29 7 -9 44 -21 21 -41 33
-45 28z"/>
<path d="M3360 4320 c0 -5 5 -10 10 -10 6 0 10 5 10 10 0 6 -4 10 -10 10 -5 0
-10 -4 -10 -10z"/>
<path d="M3390 4269 c0 -5 5 -7 10 -4 6 3 10 8 10 11 0 2 -4 4 -10 4 -5 0 -10
-5 -10 -11z"/>
<path d="M2625 4180 c-3 -5 -1 -10 4 -10 6 0 11 5 11 10 0 6 -2 10 -4 10 -3 0
-8 -4 -11 -10z"/>
<path d="M2566 4161 c-4 -5 3 -7 14 -4 23 6 26 13 6 13 -8 0 -17 -4 -20 -9z"/>
<path d="M2423 4130 c-32 -13 -28 -17 12 -12 19 2 35 8 35 13 0 11 -18 11 -47
-1z"/>
<path d="M800 4095 c0 -9 16 -41 35 -71 19 -30 35 -59 35 -64 0 -6 5 -10 10
-10 6 0 5 11 -4 28 -7 15 -23 48 -35 74 -22 50 -41 69 -41 43z"/>
<path d="M2760 4053 c-51 -5 -70 -17 -52 -35 18 -18 15 -28 -8 -28 -11 0 -20
-5 -20 -11 0 -7 9 -8 28 -3 15 4 42 8 60 8 19 0 31 4 29 10 -2 6 2 17 10 24
14 14 18 43 6 40 -5 -1 -28 -3 -53 -5z m18 -41 c2 -7 -6 -12 -17 -12 -21 0
-27 11 -14 24 9 9 26 2 31 -12z"/>
<path d="M910 3913 c0 -14 37 -83 65 -122 20 -27 26 -30 31 -17 3 9 2 22 -3
29 -74 95 -93 117 -93 110z"/>
<path d="M4538 3903 c-10 -2 -18 -9 -18 -13 0 -5 -39 -52 -86 -104 -123 -136
-277 -250 -383 -285 -81 -27 -292 -45 -446 -38 -119 5 -119 5 -60 -8 79 -18
317 -62 380 -70 141 -18 399 42 550 127 98 55 127 77 234 176 52 48 98 89 102
90 17 7 9 31 -13 38 -13 4 -45 17 -71 30 -27 13 -69 26 -93 30 -25 3 -51 13
-59 20 -7 8 -15 13 -17 13 -2 -1 -11 -3 -20 -6z"/>
<path d="M1120 3693 c0 -5 9 -14 20 -21 11 -7 20 -8 20 -2 0 5 -9 14 -20 20
-11 6 -20 7 -20 3z"/>
<path d="M5905 3531 c20 -9 20 -9 -2 -18 -17 -6 -20 -12 -13 -23 7 -10 10 -11
10 -2 0 6 10 12 23 12 18 0 19 -2 7 -11 -11 -8 -12 -12 -2 -16 6 -2 10 -9 7
-13 -3 -5 4 -19 16 -31 49 -49 52 -82 23 -259 -32 -189 -58 -313 -99 -465 -15
-55 -32 -118 -38 -140 -5 -22 -14 -44 -18 -50 -5 -5 -9 -19 -9 -31 0 -13 -4
-25 -9 -28 -5 -3 -12 -22 -16 -43 -3 -20 -27 -95 -51 -167 -25 -72 -55 -167
-69 -211 -65 -218 -131 -389 -169 -440 -13 -16 -27 -41 -31 -54 -10 -31 -61
-118 -92 -156 -13 -16 -54 -68 -89 -115 -93 -122 -121 -156 -194 -232 l-66
-69 -43 16 c-24 8 -47 15 -52 15 -17 0 -9 -19 11 -25 11 -4 18 -11 15 -16 -4
-5 1 -9 9 -9 17 0 31 -18 22 -28 -11 -11 -90 -11 -104 0 -16 14 -26 4 -19 -17
4 -8 15 -15 25 -15 11 0 25 -7 32 -15 12 -15 -23 -56 -205 -241 -38 -39 -88
-91 -111 -115 -38 -41 -119 -118 -174 -165 -14 -11 -53 -50 -86 -85 -34 -35
-81 -82 -105 -103 -113 -101 -149 -139 -149 -161 0 -3 47 -5 105 -5 l105 0 41
45 c46 50 106 88 89 56 -5 -10 -16 -24 -25 -31 -9 -7 -25 -26 -36 -42 l-20
-28 1325 0 1326 0 0 1445 c0 795 -3 1445 -6 1445 -22 0 -148 -79 -194 -121
-78 -72 -112 -83 -103 -34 3 13 9 22 14 19 5 -3 9 -1 9 4 0 9 -3 6 162 184
l118 126 0 175 0 174 -142 7 c-210 10 -508 44 -743 85 -136 24 -238 35 -210
22z m786 -748 c-6 -10 -42 -49 -81 -88 -62 -62 -70 -74 -70 -108 0 -21 9 -57
20 -79 36 -76 16 -148 -41 -148 -91 0 -212 70 -217 127 -4 42 56 169 102 215
31 31 50 39 129 58 50 11 99 25 107 30 8 5 25 10 38 10 19 0 21 -3 13 -17z"/>
<path d="M2973 3511 c-23 -9 -45 -20 -49 -23 -13 -14 54 0 97 20 36 17 39 20
19 20 -14 0 -44 -8 -67 -17z"/>
<path d="M0 1581 l0 -1581 1281 0 c1276 0 1280 0 1274 20 -5 15 -2 20 12 20
15 0 16 2 3 10 -12 7 -13 13 -4 27 9 14 8 21 -2 31 -12 11 -14 7 -14 -23 0
-19 -4 -35 -9 -35 -8 0 -22 30 -25 55 -3 16 -76 143 -100 172 -52 65 -145 153
-196 185 -106 67 -134 102 -200 248 -69 151 -83 167 -196 225 -42 22 -96 57
-120 78 l-44 39 0 77 c0 171 -65 299 -195 386 -30 20 -97 57 -148 82 -50 25
-123 64 -162 86 -38 23 -87 50 -107 62 -177 97 -308 183 -308 202 0 13 21 55
106 210 43 77 46 110 7 66 -16 -17 -36 -33 -45 -34 -17 -4 -102 70 -147 127
-12 15 -50 58 -84 95 -34 37 -79 86 -99 110 -20 24 -54 64 -75 89 -57 66 -147
188 -237 319 -43 64 -94 135 -112 158 -19 23 -34 46 -34 52 0 5 -4 13 -10 16
-7 4 -10 -523 -10 -1574z"/>
<path d="M4820 920 c0 -5 7 -10 15 -10 8 0 15 5 15 10 0 6 -7 10 -15 10 -8 0
-15 -4 -15 -10z"/>
<path d="M2322 518 c-21 -21 -13 -39 44 -91 31 -29 90 -93 130 -144 79 -97
102 -111 186 -119 194 -17 255 -21 265 -17 22 8 14 50 -14 83 -14 17 -58 52
-97 77 -39 25 -82 53 -96 63 -14 9 -56 29 -95 44 -38 15 -110 45 -160 66 -106
46 -146 55 -163 38z"/>
</g>
</svg>
